<svg width="141" height="166" viewBox="0 0 141 166" fill="none" xmlns="http://www.w3.org/2000/svg">
<path d="M120.442 24.1679C117.394 24.1636 114.383 24.8436 111.632 26.1576V21.2311C111.634 16.3315 109.886 11.5922 106.703 7.86749C103.519 4.14273 99.1104 1.67739 94.2703 0.915727C89.4302 0.154063 84.4772 1.14617 80.3039 3.71326C76.1305 6.28035 73.0113 10.2536 71.5083 14.917C68.3777 13.219 64.8596 12.3634 61.2989 12.434C57.7381 12.5047 54.2568 13.4992 51.196 15.3201C48.1353 17.141 45.6001 19.7259 43.8388 22.8214C42.0776 25.9169 41.1508 29.4168 41.1492 32.9783V79.9669L38.3446 75.4663C35.6204 70.7652 31.146 67.3336 25.8992 65.9218C20.6525 64.51 15.0602 65.2327 10.3447 67.932C5.62928 70.6313 2.17419 75.0875 0.734671 80.3267C-0.704845 85.5659 -0.0117001 91.162 2.6626 95.8916C14.4098 120.685 23.9029 138.269 34.7617 149.26C45.7306 160.391 58.1826 165.134 76.3907 165.134C93.5202 165.114 109.943 158.301 122.055 146.189C134.167 134.076 140.981 117.654 141 100.524V44.7254C141 39.2732 138.834 34.0444 134.979 30.1891C131.124 26.3338 125.895 24.1679 120.442 24.1679ZM129.253 100.524C129.237 114.54 123.663 127.976 113.753 137.886C103.842 147.797 90.4058 153.371 76.3907 153.387C61.4277 153.387 51.7877 149.804 43.1095 141.015C33.3961 131.17 24.4536 114.474 13.1763 90.6715C13.1107 90.5257 13.0371 90.3835 12.956 90.2457C11.7877 88.2215 11.4713 85.8162 12.0765 83.5588C12.6816 81.3014 14.1587 79.3768 16.1828 78.2085C18.207 77.0402 20.6123 76.7238 22.8697 77.3289C25.1271 77.9341 27.0517 79.4112 28.22 81.4353C28.2504 81.4938 28.2848 81.5502 28.3228 81.6042L42.0302 103.63C42.7036 104.717 43.7131 105.554 44.9054 106.015C46.0977 106.475 47.4078 106.535 48.6369 106.183C49.866 105.832 50.9469 105.09 51.7156 104.068C52.4843 103.047 52.8989 101.803 52.8964 100.524V32.9783C52.8964 30.6416 53.8246 28.4007 55.4769 26.7484C57.1291 25.0962 59.3701 24.1679 61.7067 24.1679C64.0434 24.1679 66.2843 25.0962 67.9366 26.7484C69.5889 28.4007 70.5171 30.6416 70.5171 32.9783V77.0301C70.5171 78.5879 71.1359 80.0818 72.2374 81.1834C73.3389 82.2849 74.8329 82.9037 76.3907 82.9037C77.9484 82.9037 79.4424 82.2849 80.5439 81.1834C81.6454 80.0818 82.2642 78.5879 82.2642 77.0301V21.2311C82.2642 18.8945 83.1925 16.6535 84.8447 15.0013C86.497 13.349 88.738 12.4208 91.0746 12.4208C93.4113 12.4208 95.6522 13.349 97.3045 15.0013C98.9567 16.6535 99.885 18.8945 99.885 21.2311V77.0301C99.885 78.5879 100.504 80.0818 101.605 81.1834C102.707 82.2849 104.201 82.9037 105.759 82.9037C107.316 82.9037 108.81 82.2849 109.912 81.1834C111.013 80.0818 111.632 78.5879 111.632 77.0301V44.7254C111.632 42.3888 112.56 40.1478 114.213 38.4956C115.865 36.8433 118.106 35.9151 120.442 35.9151C122.779 35.9151 125.02 36.8433 126.672 38.4956C128.325 40.1478 129.253 42.3888 129.253 44.7254V100.524Z" fill="#FDF6E3"/>
</svg>
