<svg width="187" height="128" viewBox="0 0 187 128" fill="none" xmlns="http://www.w3.org/2000/svg">
<path d="M0 0V11.6364H110.545V98.9091H74.7287C72.1338 88.9076 63.1389 81.4545 52.3636 81.4545C41.5884 81.4545 32.5935 88.9076 29.9985 98.9091H23.2727V69.8182H11.6364V110.545H29.9985C32.5935 120.547 41.5884 128 52.3636 128C63.1389 128 72.1338 120.547 74.7287 110.545H123.089C125.684 120.547 134.679 128 145.455 128C156.23 128 165.225 120.547 167.82 110.545H186.182V63.0924L185.815 62.1789L174.179 27.2698L172.916 23.2727H122.182V0H0ZM5.81818 23.2727V34.9091H58.1818V23.2727H5.81818ZM122.182 34.9091H164.544L174.545 64.7273V98.9091H167.82C165.225 88.9076 156.23 81.4545 145.455 81.4545C134.679 81.4545 125.684 88.9076 123.089 98.9091H122.182V34.9091ZM11.6364 46.5455V58.1818H46.5455V46.5455H11.6364ZM52.3636 93.0909C58.8625 93.0909 64 98.2284 64 104.727C64 111.226 58.8625 116.364 52.3636 116.364C45.8647 116.364 40.7273 111.226 40.7273 104.727C40.7273 98.2284 45.8647 93.0909 52.3636 93.0909ZM145.455 93.0909C151.953 93.0909 157.091 98.2284 157.091 104.727C157.091 111.226 151.953 116.364 145.455 116.364C138.956 116.364 133.818 111.226 133.818 104.727C133.818 98.2284 138.956 93.0909 145.455 93.0909Z" fill="#FDF6E3"/>
</svg>
