<svg width="169" height="169" viewBox="0 0 169 169" fill="none" xmlns="http://www.w3.org/2000/svg">
<path d="M65.8422 16.2982C70.5855 12.2614 72.9571 10.2429 75.4297 9.0571C78.2617 7.70289 81.3609 7 84.5 7C87.6391 7 90.7384 7.70289 93.5703 9.0571C96.0513 10.2345 98.423 12.2529 103.158 16.2982C105.05 17.9129 105.992 18.7119 107.001 19.3847C109.312 20.9336 111.908 22.0085 114.638 22.5469C115.823 22.7824 117.06 22.8833 119.532 23.0852C125.747 23.5729 128.851 23.8253 131.441 24.742C134.4 25.7861 137.087 27.4791 139.306 29.6969C141.526 31.9147 143.22 34.601 144.266 37.559C145.183 40.1577 145.427 43.261 145.923 49.4677C146.117 51.9403 146.218 53.1765 146.453 54.3708C146.991 57.0957 148.068 59.6944 149.615 61.9988C150.288 63.008 151.095 63.9499 152.702 65.8422C156.739 70.5855 158.766 72.9571 159.951 75.4297C161.306 78.2617 162.008 81.3609 162.008 84.5C162.008 87.6391 161.306 90.7383 159.951 93.5703C158.774 96.0429 156.747 98.4145 152.702 103.158C151.599 104.378 150.568 105.661 149.615 107.001C148.067 109.31 146.993 111.903 146.453 114.629C146.218 115.823 146.117 117.06 145.923 119.532C145.427 125.739 145.183 128.851 144.266 131.441C143.22 134.399 141.526 137.085 139.306 139.303C137.087 141.521 134.4 143.214 131.441 144.258C128.851 145.183 125.747 145.427 119.532 145.915C117.06 146.117 115.832 146.218 114.638 146.453C111.908 146.992 109.312 148.066 107.001 149.615C105.664 150.568 104.383 151.599 103.166 152.702C98.423 156.739 96.0513 158.757 93.5787 159.943C90.7468 161.297 87.6475 162 84.5084 162C81.3693 162 78.2701 161.297 75.4381 159.943C72.9571 158.765 70.5855 156.747 65.8506 152.702C64.6309 151.599 63.3476 150.568 62.0072 149.615C59.696 148.066 57.1004 146.992 54.3708 146.453C52.7511 146.178 51.1168 145.998 49.4761 145.915C43.261 145.427 40.1577 145.175 37.5674 144.258C34.6087 143.214 31.9213 141.521 29.702 139.303C27.4828 137.085 25.788 134.399 24.742 131.441C23.8253 128.851 23.5814 125.739 23.0852 119.532C23.0046 117.889 22.8277 116.252 22.5553 114.629C22.0158 111.903 20.941 109.31 19.3931 107.001C18.7203 105.992 17.9129 105.05 16.3066 103.158C12.2698 98.4145 10.2429 96.0429 9.0571 93.5703C7.70289 90.7383 7 87.6391 7 84.5C7 81.3609 7.70289 78.2617 9.0571 75.4297C10.2429 72.9571 12.2614 70.5855 16.3066 65.8422C17.9129 63.9499 18.7203 63.008 19.3931 61.9988C20.941 59.6901 22.0158 57.0975 22.5553 54.3708C22.7908 53.1765 22.8917 51.9403 23.0852 49.4677C23.5814 43.261 23.8253 40.1577 24.742 37.559C25.7889 34.6001 27.4849 31.9132 29.7057 29.6954C31.9265 27.4775 34.6156 25.785 37.5758 24.742C40.1661 23.8253 43.2694 23.5729 49.4845 23.0852C51.9571 22.8833 53.185 22.7824 54.3792 22.5469C57.1088 22.0085 59.7044 20.9336 62.0156 19.3847C63.0248 18.7119 63.9583 17.9129 65.8422 16.2982Z" stroke="#FDF6E3" stroke-width="12.6152"/>
<path d="M55.0703 88.7093L71.8905 105.53L113.941 63.479" stroke="#FDF6E3" stroke-width="12.6152" stroke-linecap="round" stroke-linejoin="round"/>
</svg>
